#!OML:ASF E:\emotionWalksFemale\Project 1\Capture day 1\Session 1\Female1.ASF
:FULLY-SPECIFIED
:DEGREES
270
root 7.86711 14.6799 22.2422 -169.918 1.82638 -178.232
lowerback 21.001 0.389841 0.292088
upperback -5.78041 0.680961 0.211419
thorax -18.7904 0.292179 -0.169682
lowerneck -4.59553 -2.66398 -7.63038
upperneck 2.27247 -3.3492 8.40315
head 1.87542 -1.55368 4.05778
rclavicle -7.64079e-015 7.95139e-016
rhumerus 103.29 -37.3379 -61.7307
rradius 49.4717
rwrist -1.16133
rhand -32.6253 -48.3916
rfingers 7.12502
rthumb -5.85248 -78.2908
lclavicle -7.64079e-015 7.95139e-016
lhumerus 120.394 30.2573 82.3583
lradius 36.5448
lwrist -10.9767
lhand -27.4748 -81.3351
lfingers 7.12502
lthumb -0.878627 -51.3571
rfemur -27.7385 -1.21057 26.9236
rtibia 47.4905
rfoot -28.6279 -19.0297
rtoes -2.15484
lfemur -32.7617 2.86552 -19.7975
ltibia 52.8724
lfoot -31.1618 -6.77291
ltoes -16.4628
271
root 7.8656 14.6188 22.3017 -169.482 1.89243 -178.452
lowerback 21.3687 0.402683 0.0467203
upperback -5.4847 0.598154 0.119509
thorax -18.6469 0.271445 -0.107929
lowerneck -5.19299 -2.71371 -7.69141
upperneck 1.73407 -3.34435 8.65631
head 1.81629 -1.52942 4.15543
rclavicle 6.23687e-015 7.55382e-015
rhumerus 102.857 -37.4845 -61.7014
rradius 50.3631
rwrist -1.40248
rhand -32.765 -48.4524
rfingers 7.12502
rthumb -5.98731 -78.3478
lclavicle 6.23687e-015 7.55382e-015
lhumerus 120.062 30.577 82.2922
lradius 37.2527
lwrist -10.3448
lhand -27.255 -81.2927
lfingers 7.12502
lthumb -0.666337 -51.314
rfemur -29.3987 -0.986653 26.7142
rtibia 49.303
rfoot -29.2349 -18.9371
rtoes -1.16201
lfemur -34.083 3.08523 -20.1922
ltibia 54.1583
lfoot -32.1128 -6.35668
ltoes -17.0696
272
root 7.8629 14.5479 22.3699 -168.84 2.02673 -178.418
lowerback 21.5393 0.403742 -0.0575214
upperback -5.29934 0.569769 0.15769
thorax -18.5195 0.272246 0.0076156
lowerneck -5.27888 -2.71973 -7.82688
upperneck 1.05054 -3.29589 8.79958
head 1.60942 -1.49795 4.23215
rclavicle -4.00054e-015 1.78906e-015
rhumerus 102.144 -37.518 -61.3003
rradius 51.3325
rwrist -2.11389
rhand -31.1804 -47.9536
rfingers 7.12502
rthumb -4.45735 -77.8867
lclavicle -4.00054e-015 1.78906e-015
lhumerus 119.329 31.1325 82.027
lradius 38.1995
lwrist -9.47111
lhand -27.0833 -81.5452
lfingers 7.12502
lthumb -0.500554 -51.566
rfemur -31.3481 -0.675558 26.8213
rtibia 51.0915
rfoot -29.326 -19.3791
rtoes -2.53656
lfemur -35.7453 3.40501 -20.3279
ltibia 55.5268
lfoot -32.8863 -5.88886
ltoes -18.113
273
root 7.86335 14.4699 22.4525 -167.987 2.10831 -178.088
lowerback 21.5673 0.422504 0.0237242
upperback -5.10982 0.642419 0.317892
thorax -18.297 0.307518 0.124606
lowerneck -5.24638 -2.71145 -7.94801
upperneck -4.36965e-005 -3.20499 8.89892
head 1.2552 -1.44437 4.29211
rclavicle -4.4975e-015 -7.7526e-015
rhumerus 101.479 -37.6992 -61.106
rradius 52.5773
rwrist -2.27583
rhand -33.2678 -48.5516
rfingers 7.12502
rthumb -6.47275 -78.4327
lclavicle -4.4975e-015 -7.7526e-015
lhumerus 118.546 31.7823 81.6022
lradius 39.2584
lwrist -8.04518
lhand -27.2091 -81.81
lfingers 7.12502
lthumb -0.622078 -51.8312
rfemur -33.5842 -0.27596 27.3013
rtibia 52.831
rfoot -29.1852 -20.1781
rtoes -4.01309
lfemur -37.8442 3.69925 -20.1031
ltibia 56.9966
lfoot -33.2017 -5.60677
ltoes -18.8182
274
root 7.86456 14.3901 22.5369 -167.177 2.13985 -177.841
lowerback 22.248 0.415853 0.158508
upperback -5.55893 0.685467 0.355475
thorax -18.6439 0.308825 0.051114
lowerneck -4.9875 -2.67786 -7.87986
upperneck -0.858852 -3.11405 8.97806
head 0.919269 -1.39513 4.31055
rclavicle 2.21148e-015 -7.35503e-015
rhumerus 99.8301 -37.7913 -60.4537
rradius 54.1395
rwrist -2.94971
rhand -33.795 -48.3812
rfingers 7.12502
rthumb -6.98167 -78.246
lclavicle 2.21148e-015 -7.35503e-015
lhumerus 116.965 32.3466 80.5457
lradius 40.4813
lwrist -6.2061
lhand -27.4399 -82.0196
lfingers 7.12502
lthumb -0.844998 -52.0416
rfemur -35.7537 0.0885374 27.668
rtibia 54.5385
rfoot -29.3869 -20.6152
rtoes -3.24447
lfemur -39.934 3.84728 -19.9307
ltibia 58.5153
lfoot -33.4466 -5.50296
ltoes -18.6094
275
root 7.86437 14.3061 22.6207 -166.406 2.16146 -177.757
lowerback 22.7549 0.402183 0.144132
upperback -5.59928 0.666452 0.369248
thorax -18.9835 0.301536 0.0781372
lowerneck -4.67673 -2.68644 -7.87814
upperneck -1.71409 -3.07854 9.01165
head 0.582202 -1.37575 4.3268
rclavicle -3.47873e-015 -6.95746e-015
rhumerus 98.2316 -37.9359 -59.5755
rradius 55.8837
rwrist -4.47789
rhand -33.5879 -48.222
rfingers 7.12502
rthumb -6.78174 -78.0934
lclavicle -3.47873e-015 -6.95746e-015
lhumerus 115.458 33.0065 79.5696
lradius 41.9193
lwrist -4.45024
lhand -27.6518 -82.2546
lfingers 7.12502
lthumb -1.04966 -52.2774
rfemur -37.8801 0.426401 27.8146
rtibia 56.2354
rfoot -29.6973 -20.8446
rtoes -1.78768
lfemur -41.9894 3.91827 -19.9304
ltibia 60.0677
lfoot -33.8848 -5.47007
ltoes -18.2727
276
root 7.8636 14.2223 22.7071 -165.577 2.14639 -177.705
lowerback 22.9188 0.414636 0.177738
upperback -5.23465 0.674294 0.309332
thorax -18.6189 0.294724 -0.0097691
lowerneck -5.7205 -2.94053 -7.87522
upperneck -2.07582 -3.29178 9.16602
head 0.676845 -1.43901 4.36674
rclavicle -1.19271e-015 2.78299e-015
rhumerus 97.1651 -38.6759 -58.9543
rradius 57.849
rwrist -6.2376
rhand -33.0806 -48.0072
rfingers 7.12502
rthumb -6.29207 -77.8938
lclavicle -1.19271e-015 2.78299e-015
lhumerus 114.675 33.794 78.8224
lradius 43.5539
lwrist -2.37101
lhand -27.7584 -82.5447
lfingers 7.12502
lthumb -1.15262 -52.5681
rfemur -40.0655 0.750759 27.9138
rtibia 57.9183
rfoot -29.9534 -21.0379
rtoes -0.605427
lfemur -44.1437 3.95532 -19.971
ltibia 61.6218
lfoot -34.3245 -5.35279
ltoes -18.562
277
root 7.86367 14.135 22.7986 -164.694 2.06934 -177.552
lowerback 23.4632 0.399938 0.274983
upperback -5.29299 0.688869 0.317806
thorax -18.9973 0.288695 -0.0647347
lowerneck -5.94562 -2.82463 -7.71231
upperneck -2.80751 -3.04614 9.18176
head 0.453104 -1.29429 4.34763
rclavicle 3.37934e-015 5.96354e-015
rhumerus 95.2599 -38.9495 -57.9375
rradius 60.0049
rwrist -7.49615
rhand -32.9866 -47.8025
rfingers 7.12502
rthumb -6.20132 -77.6918
lclavicle 3.37934e-015 5.96354e-015
lhumerus 113.015 34.4631 77.5684
lradius 45.2152
lwrist -0.0970359
lhand -27.825 -82.8899
lfingers 7.12502
lthumb -1.21691 -52.9136
rfemur -42.3339 1.06154 28.1411
rtibia 59.6132
rfoot -30.2198 -21.3098
rtoes -0.174992
lfemur -46.438 3.97733 -19.8938
ltibia 63.1749
lfoot -34.6298 -5.24267
ltoes -18.9238
